<svg width="" height="" viewBox="0 0 35 35" fill="none" xmlns="http://www.w3.org/2000/svg">
    <rect width="34" height="34" rx="6" fill="white"/>
    <path d="M6.01136 23V11.3636H10.6023C11.4811 11.3636 12.2311 11.5208 12.8523 11.8352C13.4773 12.1458 13.9527 12.5871 14.2784 13.1591C14.608 13.7273 14.7727 14.3958 14.7727 15.1648C14.7727 15.9375 14.6061 16.6023 14.2727 17.1591C13.9394 17.7121 13.4564 18.1364 12.8239 18.4318C12.1951 18.7273 11.4337 18.875 10.5398 18.875H7.46591V16.8977H10.142C10.6117 16.8977 11.0019 16.8333 11.3125 16.7045C11.6231 16.5758 11.8542 16.3826 12.0057 16.125C12.161 15.8674 12.2386 15.5473 12.2386 15.1648C12.2386 14.7784 12.161 14.4527 12.0057 14.1875C11.8542 13.9223 11.6212 13.7216 11.3068 13.5852C10.9962 13.4451 10.6042 13.375 10.1307 13.375H8.47159V23H6.01136ZM12.2955 17.7045L15.1875 23H12.4716L9.64205 17.7045H12.2955Z" fill="#FF5552"/>
    <path d="M22.8764 23H18.7514V11.3636H22.9105C24.0809 11.3636 25.0885 11.5966 25.9332 12.0625C26.7779 12.5246 27.4275 13.1894 27.882 14.0568C28.3404 14.9242 28.5695 15.9621 28.5695 17.1705C28.5695 18.3826 28.3404 19.4242 27.882 20.2955C27.4275 21.1667 26.7741 21.8352 25.9218 22.3011C25.0733 22.767 24.0582 23 22.8764 23ZM21.2116 20.892H22.7741C23.5014 20.892 24.1131 20.7633 24.6093 20.5057C25.1093 20.2443 25.4843 19.8409 25.7343 19.2955C25.9881 18.7462 26.115 18.0379 26.115 17.1705C26.115 16.3106 25.9881 15.608 25.7343 15.0625C25.4843 14.517 25.1112 14.1155 24.615 13.858C24.1188 13.6004 23.507 13.4716 22.7798 13.4716H21.2116V20.892Z" fill="#313131"/>
</svg>
